<mxfile host="app.diagrams.net" modified="2022-12-11T19:46:24.872Z" agent="5.0 (Windows NT 6.1; Win64; x64) AppleWebKit/537.36 (KHTML, like Gecko) Chrome/108.0.0.0 Safari/537.36" etag="Lr6dnAgLKJwXqZ1iwAeU" version="20.5.3" type="github">
  <diagram id="CAz_oHpb7MSBm6WmitlW" name="Page-1">
    <mxGraphModel dx="4500" dy="1940" grid="1" gridSize="10" guides="1" tooltips="1" connect="1" arrows="1" fold="1" page="1" pageScale="1" pageWidth="827" pageHeight="1169" math="0" shadow="0">
      <root>
        <mxCell id="0" />
        <mxCell id="1" parent="0" />
        <mxCell id="3QsOLblqlAYTG-wrOl3m-1" style="rounded=0;orthogonalLoop=1;jettySize=auto;html=1;" edge="1" parent="1" source="3QsOLblqlAYTG-wrOl3m-2" target="3QsOLblqlAYTG-wrOl3m-3">
          <mxGeometry relative="1" as="geometry" />
        </mxCell>
        <mxCell id="3QsOLblqlAYTG-wrOl3m-2" value="User" style="shape=umlActor;verticalLabelPosition=bottom;verticalAlign=top;html=1;" vertex="1" parent="1">
          <mxGeometry x="-769" y="85" width="30" height="60" as="geometry" />
        </mxCell>
        <mxCell id="3QsOLblqlAYTG-wrOl3m-3" value="Choose a strategy" style="ellipse;whiteSpace=wrap;html=1;" vertex="1" parent="1">
          <mxGeometry x="-679" y="80" width="140" height="70" as="geometry" />
        </mxCell>
        <mxCell id="3QsOLblqlAYTG-wrOl3m-4" value="&amp;lt;&amp;lt;extend&amp;gt;&amp;gt;" style="html=1;verticalAlign=bottom;labelBackgroundColor=none;endArrow=open;endFill=0;dashed=1;rounded=0;" edge="1" parent="1" source="3QsOLblqlAYTG-wrOl3m-5" target="3QsOLblqlAYTG-wrOl3m-3">
          <mxGeometry width="160" relative="1" as="geometry">
            <mxPoint x="-459" y="365" as="sourcePoint" />
            <mxPoint x="-299" y="365" as="targetPoint" />
          </mxGeometry>
        </mxCell>
        <mxCell id="3QsOLblqlAYTG-wrOl3m-5" value="Choose a search attribute" style="ellipse;whiteSpace=wrap;html=1;" vertex="1" parent="1">
          <mxGeometry x="-439" y="80" width="140" height="70" as="geometry" />
        </mxCell>
        <mxCell id="3QsOLblqlAYTG-wrOl3m-6" value="Search by the attribute" style="ellipse;whiteSpace=wrap;html=1;" vertex="1" parent="1">
          <mxGeometry x="-199" y="80" width="140" height="70" as="geometry" />
        </mxCell>
        <mxCell id="3QsOLblqlAYTG-wrOl3m-7" value="&amp;lt;&amp;lt;extend&amp;gt;&amp;gt;" style="html=1;verticalAlign=bottom;labelBackgroundColor=none;endArrow=open;endFill=0;dashed=1;rounded=0;" edge="1" parent="1" source="3QsOLblqlAYTG-wrOl3m-6" target="3QsOLblqlAYTG-wrOl3m-5">
          <mxGeometry width="160" relative="1" as="geometry">
            <mxPoint x="-459" y="365" as="sourcePoint" />
            <mxPoint x="-299" y="365" as="targetPoint" />
          </mxGeometry>
        </mxCell>
      </root>
    </mxGraphModel>
  </diagram>
</mxfile>
